<svg width="20" height="20" viewBox="0 0 20 20" fill="none" xmlns="http://www.w3.org/2000/svg">
<path d="M17.2999 8.3934C17.324 5.57318 14.8576 2.98797 11.8024 2.63008C11.7364 2.62206 11.6706 2.6123 11.6051 2.60082C11.4516 2.57219 11.2958 2.55588 11.1395 2.55206C10.5126 2.55206 10.3454 2.98114 10.3014 3.23567C10.2583 3.48434 10.2994 3.694 10.4225 3.85686C10.6298 4.13088 10.9953 4.17964 11.2887 4.21865C11.3738 4.23035 11.4549 4.24108 11.523 4.2557C14.2688 4.85349 15.193 5.79259 15.6447 8.44411C15.6557 8.50847 15.6607 8.58844 15.6667 8.67328C15.6867 8.99021 15.7268 9.64943 16.4548 9.64943C16.5148 9.64943 16.5809 9.64456 16.649 9.63481C17.326 9.53436 17.3049 8.9317 17.2949 8.64207C17.2919 8.56016 17.2889 8.48312 17.2969 8.43143C17.2985 8.41849 17.2992 8.40546 17.2989 8.39243L17.2999 8.3934Z" fill="black"/>
<path d="M10.9613 1.5954C11.0434 1.60125 11.1195 1.6071 11.1836 1.61588C15.6928 2.29168 17.7666 4.37174 18.3404 8.79711C18.3504 8.8722 18.3524 8.96387 18.3534 9.06041C18.3594 9.4066 18.3714 10.1263 19.1645 10.1409H19.1886C19.4379 10.1409 19.6352 10.0678 19.7774 9.92345C20.0237 9.67283 20.0077 9.29933 19.9927 8.99898C19.9896 8.92486 19.9866 8.85562 19.9866 8.79419C20.0447 4.26934 16.0212 0.164806 11.3789 0.0126774C11.3589 0.0126774 11.3408 0.0126774 11.3228 0.0156029C11.3045 0.0178475 11.2861 0.0188252 11.2677 0.0185285C11.2207 0.0185285 11.1646 0.0146278 11.1035 0.010727C11.0314 0.00585113 10.9483 0 10.8632 0C10.1242 0 9.98398 0.51197 9.96595 0.817202C9.9249 1.52226 10.6249 1.57199 10.9613 1.5954V1.5954ZM18.1231 14.5166C18.0264 14.4449 17.9305 14.3721 17.8357 14.2981C17.343 13.9119 16.8193 13.557 16.3136 13.2127L15.9982 12.9982C15.3493 12.5545 14.7665 12.339 14.2158 12.339C13.4727 12.339 12.8259 12.7388 12.2911 13.5258C12.0548 13.8749 11.7674 14.0446 11.4139 14.0446C11.1684 14.0362 10.9275 13.9774 10.707 13.872C8.61411 12.9475 7.11806 11.5296 6.26289 9.6582C5.84933 8.75323 5.98351 8.16227 6.71051 7.68053C7.12407 7.40748 7.89212 6.89941 7.83905 5.9252C7.77696 4.82032 5.27254 1.49398 4.2171 1.11658C3.7659 0.956303 3.27132 0.954923 2.81919 1.11268C1.60653 1.50958 0.737345 2.20781 0.30175 3.12936C-0.118825 4.02067 -0.0987977 5.06704 0.355823 6.15535C1.67262 9.30226 3.52315 12.0464 5.85734 14.3108C8.14146 16.5274 10.9493 18.3422 14.2017 19.7065C14.4951 19.8293 14.8026 19.8966 15.0279 19.9454C15.104 19.962 15.1701 19.9766 15.2181 19.9893C15.2446 19.9962 15.2718 19.9998 15.2992 20H15.3253C16.8554 20 18.6929 18.6386 19.2566 17.0871C19.7513 15.7277 18.8481 15.0558 18.1231 14.5166V14.5166ZM11.6382 5.19089C11.3769 5.19674 10.8311 5.2104 10.6399 5.75065C10.5498 6.00419 10.5608 6.22263 10.6719 6.40304C10.8341 6.66634 11.1456 6.74826 11.4279 6.79311C12.4544 6.95304 12.9821 7.505 13.0872 8.53186C13.1363 9.0097 13.4677 9.34419 13.8913 9.34419C13.9235 9.34414 13.9556 9.34219 13.9874 9.33834C14.4981 9.27983 14.7455 8.91413 14.7235 8.25199C14.7315 7.56156 14.361 6.77751 13.7291 6.1534C13.0962 5.52733 12.3332 5.17431 11.6382 5.19089V5.19089Z" fill="black"/>
</svg>
